<mxfile host="app.diagrams.net" agent="Mozilla/5.0 (Windows NT 10.0; Win64; x64) AppleWebKit/537.36 (KHTML, like Gecko) Chrome/136.0.0.0 Safari/537.36" version="27.0.9">
  <diagram name="Page-1" id="2YBvvXClWsGukQMizWep">
    <mxGraphModel dx="2902" dy="1320" grid="0" gridSize="10" guides="1" tooltips="1" connect="1" arrows="1" fold="1" page="0" pageScale="1" pageWidth="850" pageHeight="1100" math="0" shadow="0">
      <root>
        <mxCell id="0" />
        <mxCell id="1" parent="0" />
        <mxCell id="aM9ryv3xv72pqoxQDRHE-1" value=":TelaEditarProduto" style="shape=umlLifeline;perimeter=lifelinePerimeter;whiteSpace=wrap;html=1;container=0;dropTarget=0;collapsible=0;recursiveResize=0;outlineConnect=0;portConstraint=eastwest;newEdgeStyle={&quot;edgeStyle&quot;:&quot;elbowEdgeStyle&quot;,&quot;elbow&quot;:&quot;vertical&quot;,&quot;curved&quot;:0,&quot;rounded&quot;:0};fillColor=#fff2cc;strokeColor=#d6b656;" parent="1" vertex="1">
          <mxGeometry x="116" y="40" width="100" height="1010" as="geometry" />
        </mxCell>
        <mxCell id="aM9ryv3xv72pqoxQDRHE-2" value="" style="html=1;points=[];perimeter=orthogonalPerimeter;outlineConnect=0;targetShapes=umlLifeline;portConstraint=eastwest;newEdgeStyle={&quot;edgeStyle&quot;:&quot;elbowEdgeStyle&quot;,&quot;elbow&quot;:&quot;vertical&quot;,&quot;curved&quot;:0,&quot;rounded&quot;:0};fillColor=#fff2cc;strokeColor=#d6b656;" parent="aM9ryv3xv72pqoxQDRHE-1" vertex="1">
          <mxGeometry x="45" y="70" width="10" height="916" as="geometry" />
        </mxCell>
        <mxCell id="DVDY-5uOP3O8Ss5EIEbu-23" value="" style="endArrow=classic;html=1;rounded=0;" parent="aM9ryv3xv72pqoxQDRHE-1" source="aM9ryv3xv72pqoxQDRHE-2" target="aM9ryv3xv72pqoxQDRHE-2" edge="1">
          <mxGeometry width="50" height="50" relative="1" as="geometry">
            <mxPoint x="220" y="250" as="sourcePoint" />
            <mxPoint x="60" y="120" as="targetPoint" />
            <Array as="points">
              <mxPoint x="130" y="80" />
              <mxPoint x="130" y="120" />
              <mxPoint x="90" y="120" />
            </Array>
          </mxGeometry>
        </mxCell>
        <mxCell id="DVDY-5uOP3O8Ss5EIEbu-24" value="valida campos" style="edgeLabel;html=1;align=center;verticalAlign=middle;resizable=0;points=[];" parent="DVDY-5uOP3O8Ss5EIEbu-23" vertex="1" connectable="0">
          <mxGeometry x="0.0516" y="-1" relative="1" as="geometry">
            <mxPoint y="-5" as="offset" />
          </mxGeometry>
        </mxCell>
        <mxCell id="DVDY-5uOP3O8Ss5EIEbu-1" value=":ProdutoController" style="shape=umlLifeline;perimeter=lifelinePerimeter;whiteSpace=wrap;html=1;container=0;dropTarget=0;collapsible=0;recursiveResize=0;outlineConnect=0;portConstraint=eastwest;newEdgeStyle={&quot;edgeStyle&quot;:&quot;elbowEdgeStyle&quot;,&quot;elbow&quot;:&quot;vertical&quot;,&quot;curved&quot;:0,&quot;rounded&quot;:0};fillColor=#f8cecc;strokeColor=#b85450;" parent="1" vertex="1">
          <mxGeometry x="370" y="40" width="100" height="1000" as="geometry" />
        </mxCell>
        <mxCell id="DVDY-5uOP3O8Ss5EIEbu-2" value="" style="html=1;points=[];perimeter=orthogonalPerimeter;outlineConnect=0;targetShapes=umlLifeline;portConstraint=eastwest;newEdgeStyle={&quot;edgeStyle&quot;:&quot;elbowEdgeStyle&quot;,&quot;elbow&quot;:&quot;vertical&quot;,&quot;curved&quot;:0,&quot;rounded&quot;:0};fillColor=#f8cecc;strokeColor=#b85450;" parent="DVDY-5uOP3O8Ss5EIEbu-1" vertex="1">
          <mxGeometry x="45" y="70" width="10" height="890" as="geometry" />
        </mxCell>
        <mxCell id="DVDY-5uOP3O8Ss5EIEbu-36" value="" style="endArrow=classic;html=1;rounded=0;" parent="DVDY-5uOP3O8Ss5EIEbu-1" source="DVDY-5uOP3O8Ss5EIEbu-2" target="DVDY-5uOP3O8Ss5EIEbu-2" edge="1">
          <mxGeometry width="50" height="50" relative="1" as="geometry">
            <mxPoint x="60" y="180" as="sourcePoint" />
            <mxPoint x="60" y="220" as="targetPoint" />
            <Array as="points">
              <mxPoint x="145" y="180" />
              <mxPoint x="145" y="220" />
              <mxPoint x="105" y="220" />
            </Array>
          </mxGeometry>
        </mxCell>
        <mxCell id="DVDY-5uOP3O8Ss5EIEbu-37" value="valida campos" style="edgeLabel;html=1;align=center;verticalAlign=middle;resizable=0;points=[];" parent="DVDY-5uOP3O8Ss5EIEbu-36" vertex="1" connectable="0">
          <mxGeometry x="0.0516" y="-1" relative="1" as="geometry">
            <mxPoint y="-5" as="offset" />
          </mxGeometry>
        </mxCell>
        <mxCell id="DVDY-5uOP3O8Ss5EIEbu-5" value=":ProdutoModel" style="shape=umlLifeline;perimeter=lifelinePerimeter;whiteSpace=wrap;html=1;container=0;dropTarget=0;collapsible=0;recursiveResize=0;outlineConnect=0;portConstraint=eastwest;newEdgeStyle={&quot;edgeStyle&quot;:&quot;elbowEdgeStyle&quot;,&quot;elbow&quot;:&quot;vertical&quot;,&quot;curved&quot;:0,&quot;rounded&quot;:0};fillColor=#d5e8d4;strokeColor=#82b366;" parent="1" vertex="1">
          <mxGeometry x="990" y="40" width="100" height="788" as="geometry" />
        </mxCell>
        <mxCell id="DVDY-5uOP3O8Ss5EIEbu-6" value="" style="html=1;points=[];perimeter=orthogonalPerimeter;outlineConnect=0;targetShapes=umlLifeline;portConstraint=eastwest;newEdgeStyle={&quot;edgeStyle&quot;:&quot;elbowEdgeStyle&quot;,&quot;elbow&quot;:&quot;vertical&quot;,&quot;curved&quot;:0,&quot;rounded&quot;:0};fillColor=#d5e8d4;strokeColor=#82b366;" parent="DVDY-5uOP3O8Ss5EIEbu-5" vertex="1">
          <mxGeometry x="45" y="80" width="10" height="642" as="geometry" />
        </mxCell>
        <mxCell id="DVDY-5uOP3O8Ss5EIEbu-11" value=":ProdutoRepository" style="shape=umlLifeline;perimeter=lifelinePerimeter;whiteSpace=wrap;html=1;container=0;dropTarget=0;collapsible=0;recursiveResize=0;outlineConnect=0;portConstraint=eastwest;newEdgeStyle={&quot;edgeStyle&quot;:&quot;elbowEdgeStyle&quot;,&quot;elbow&quot;:&quot;vertical&quot;,&quot;curved&quot;:0,&quot;rounded&quot;:0};fillColor=#e1d5e7;strokeColor=#9673a6;" parent="1" vertex="1">
          <mxGeometry x="610" y="40" width="100" height="630" as="geometry" />
        </mxCell>
        <mxCell id="DVDY-5uOP3O8Ss5EIEbu-12" value="" style="html=1;points=[];perimeter=orthogonalPerimeter;outlineConnect=0;targetShapes=umlLifeline;portConstraint=eastwest;newEdgeStyle={&quot;edgeStyle&quot;:&quot;elbowEdgeStyle&quot;,&quot;elbow&quot;:&quot;vertical&quot;,&quot;curved&quot;:0,&quot;rounded&quot;:0};fillColor=#e1d5e7;strokeColor=#9673a6;" parent="DVDY-5uOP3O8Ss5EIEbu-11" vertex="1">
          <mxGeometry x="45" y="80" width="10" height="520" as="geometry" />
        </mxCell>
        <mxCell id="DVDY-5uOP3O8Ss5EIEbu-13" value="Banco de dados" style="shape=umlLifeline;perimeter=lifelinePerimeter;whiteSpace=wrap;html=1;container=0;dropTarget=0;collapsible=0;recursiveResize=0;outlineConnect=0;portConstraint=eastwest;newEdgeStyle={&quot;edgeStyle&quot;:&quot;elbowEdgeStyle&quot;,&quot;elbow&quot;:&quot;vertical&quot;,&quot;curved&quot;:0,&quot;rounded&quot;:0};fillColor=#dae8fc;strokeColor=#6c8ebf;" parent="1" vertex="1">
          <mxGeometry x="790" y="40" width="100" height="630" as="geometry" />
        </mxCell>
        <mxCell id="DVDY-5uOP3O8Ss5EIEbu-14" value="" style="html=1;points=[];perimeter=orthogonalPerimeter;outlineConnect=0;targetShapes=umlLifeline;portConstraint=eastwest;newEdgeStyle={&quot;edgeStyle&quot;:&quot;elbowEdgeStyle&quot;,&quot;elbow&quot;:&quot;vertical&quot;,&quot;curved&quot;:0,&quot;rounded&quot;:0};fillColor=#dae8fc;strokeColor=#6c8ebf;" parent="DVDY-5uOP3O8Ss5EIEbu-13" vertex="1">
          <mxGeometry x="45" y="80" width="10" height="510" as="geometry" />
        </mxCell>
        <mxCell id="DVDY-5uOP3O8Ss5EIEbu-15" value="Funcionário" style="shape=umlActor;verticalLabelPosition=bottom;verticalAlign=top;html=1;outlineConnect=0;fillColor=#b1ddf0;strokeColor=#10739e;" parent="1" vertex="1">
          <mxGeometry x="6" y="70" width="30" height="60" as="geometry" />
        </mxCell>
        <mxCell id="DVDY-5uOP3O8Ss5EIEbu-40" value="" style="endArrow=classic;html=1;rounded=0;" parent="1" edge="1">
          <mxGeometry width="50" height="50" relative="1" as="geometry">
            <mxPoint x="173" y="185" as="sourcePoint" />
            <mxPoint x="414" y="185" as="targetPoint" />
          </mxGeometry>
        </mxCell>
        <mxCell id="DVDY-5uOP3O8Ss5EIEbu-41" value="envio do formulário" style="edgeLabel;html=1;align=center;verticalAlign=middle;resizable=0;points=[];" parent="DVDY-5uOP3O8Ss5EIEbu-40" vertex="1" connectable="0">
          <mxGeometry x="0.1082" y="2" relative="1" as="geometry">
            <mxPoint x="-4" y="-14" as="offset" />
          </mxGeometry>
        </mxCell>
        <mxCell id="DVDY-5uOP3O8Ss5EIEbu-43" value="" style="endArrow=classic;html=1;rounded=0;" parent="1" edge="1">
          <mxGeometry width="50" height="50" relative="1" as="geometry">
            <mxPoint x="425" y="310" as="sourcePoint" />
            <mxPoint x="655" y="310" as="targetPoint" />
          </mxGeometry>
        </mxCell>
        <mxCell id="DVDY-5uOP3O8Ss5EIEbu-44" value="selecionarProdutoPorID($dados[&#39;id&#39;])" style="text;html=1;align=center;verticalAlign=middle;resizable=0;points=[];autosize=1;strokeColor=none;fillColor=none;" parent="1" vertex="1">
          <mxGeometry x="430" y="280" width="220" height="30" as="geometry" />
        </mxCell>
        <mxCell id="DVDY-5uOP3O8Ss5EIEbu-46" value="" style="endArrow=classic;html=1;rounded=0;" parent="1" source="DVDY-5uOP3O8Ss5EIEbu-12" target="DVDY-5uOP3O8Ss5EIEbu-14" edge="1">
          <mxGeometry width="50" height="50" relative="1" as="geometry">
            <mxPoint x="670" y="354" as="sourcePoint" />
            <mxPoint x="830" y="354" as="targetPoint" />
            <Array as="points">
              <mxPoint x="760.63" y="354.38" />
            </Array>
          </mxGeometry>
        </mxCell>
        <mxCell id="DVDY-5uOP3O8Ss5EIEbu-50" value="seleciona produto pelo id" style="text;html=1;align=center;verticalAlign=middle;whiteSpace=wrap;rounded=0;" parent="1" vertex="1">
          <mxGeometry x="710" y="310" width="80" height="30" as="geometry" />
        </mxCell>
        <mxCell id="DVDY-5uOP3O8Ss5EIEbu-51" value="" style="endArrow=classic;html=1;rounded=0;dashed=1;" parent="1" source="DVDY-5uOP3O8Ss5EIEbu-14" edge="1">
          <mxGeometry width="50" height="50" relative="1" as="geometry">
            <mxPoint x="830" y="410" as="sourcePoint" />
            <mxPoint x="664.9135294117649" y="410" as="targetPoint" />
          </mxGeometry>
        </mxCell>
        <mxCell id="DVDY-5uOP3O8Ss5EIEbu-52" value="array de produto" style="text;html=1;align=center;verticalAlign=middle;resizable=0;points=[];autosize=1;strokeColor=none;fillColor=none;" parent="1" vertex="1">
          <mxGeometry x="695" y="380" width="110" height="30" as="geometry" />
        </mxCell>
        <mxCell id="DVDY-5uOP3O8Ss5EIEbu-53" value="Produto retornado" style="shape=umlFrame;whiteSpace=wrap;html=1;pointerEvents=0;fillColor=#f5f5f5;fontColor=#333333;strokeColor=#666666;" parent="1" vertex="1">
          <mxGeometry x="-19" y="448" width="1223" height="640" as="geometry" />
        </mxCell>
        <mxCell id="DVDY-5uOP3O8Ss5EIEbu-54" value="if(produto)" style="text;html=1;align=center;verticalAlign=middle;resizable=0;points=[];autosize=1;strokeColor=none;fillColor=none;" parent="1" vertex="1">
          <mxGeometry x="-8" y="490" width="80" height="30" as="geometry" />
        </mxCell>
        <mxCell id="DVDY-5uOP3O8Ss5EIEbu-58" value="" style="endArrow=classic;html=1;rounded=0;" parent="1" edge="1">
          <mxGeometry width="50" height="50" relative="1" as="geometry">
            <mxPoint x="425" y="499.9999999999999" as="sourcePoint" />
            <mxPoint x="655.0000000000002" y="499.9999999999999" as="targetPoint" />
          </mxGeometry>
        </mxCell>
        <mxCell id="DVDY-5uOP3O8Ss5EIEbu-59" value="editarProduto($dados)" style="text;html=1;align=center;verticalAlign=middle;resizable=0;points=[];autosize=1;strokeColor=none;fillColor=none;" parent="1" vertex="1">
          <mxGeometry x="480" y="470" width="140" height="30" as="geometry" />
        </mxCell>
        <mxCell id="DVDY-5uOP3O8Ss5EIEbu-60" value="" style="endArrow=classic;html=1;rounded=0;dashed=1;" parent="1" edge="1">
          <mxGeometry width="50" height="50" relative="1" as="geometry">
            <mxPoint x="655.0000000000002" y="440" as="sourcePoint" />
            <mxPoint x="425" y="440" as="targetPoint" />
          </mxGeometry>
        </mxCell>
        <mxCell id="DVDY-5uOP3O8Ss5EIEbu-61" value="instância de produto" style="text;html=1;align=center;verticalAlign=middle;resizable=0;points=[];autosize=1;strokeColor=none;fillColor=none;" parent="1" vertex="1">
          <mxGeometry x="485" y="410" width="130" height="30" as="geometry" />
        </mxCell>
        <mxCell id="DVDY-5uOP3O8Ss5EIEbu-63" value="" style="endArrow=classic;html=1;rounded=0;" parent="1" source="DVDY-5uOP3O8Ss5EIEbu-12" target="DVDY-5uOP3O8Ss5EIEbu-14" edge="1">
          <mxGeometry width="50" height="50" relative="1" as="geometry">
            <mxPoint x="490" y="470" as="sourcePoint" />
            <mxPoint x="830" y="540" as="targetPoint" />
            <Array as="points">
              <mxPoint x="760" y="540" />
            </Array>
          </mxGeometry>
        </mxCell>
        <mxCell id="DVDY-5uOP3O8Ss5EIEbu-65" value="edita produto pelo id correspondente" style="text;html=1;align=center;verticalAlign=middle;whiteSpace=wrap;rounded=0;" parent="1" vertex="1">
          <mxGeometry x="700" y="508" width="110" height="30" as="geometry" />
        </mxCell>
        <mxCell id="DVDY-5uOP3O8Ss5EIEbu-69" value="" style="endArrow=classic;html=1;rounded=0;dashed=1;" parent="1" source="DVDY-5uOP3O8Ss5EIEbu-13" target="DVDY-5uOP3O8Ss5EIEbu-12" edge="1">
          <mxGeometry width="50" height="50" relative="1" as="geometry">
            <mxPoint x="650" y="490" as="sourcePoint" />
            <mxPoint x="680" y="590" as="targetPoint" />
            <Array as="points">
              <mxPoint x="740" y="590" />
            </Array>
          </mxGeometry>
        </mxCell>
        <mxCell id="DVDY-5uOP3O8Ss5EIEbu-71" value="true" style="text;html=1;align=center;verticalAlign=middle;resizable=0;points=[];autosize=1;strokeColor=none;fillColor=none;" parent="1" vertex="1">
          <mxGeometry x="740" y="558" width="40" height="30" as="geometry" />
        </mxCell>
        <mxCell id="DVDY-5uOP3O8Ss5EIEbu-73" value="" style="endArrow=classic;html=1;rounded=0;dashed=1;" parent="1" source="DVDY-5uOP3O8Ss5EIEbu-12" target="DVDY-5uOP3O8Ss5EIEbu-2" edge="1">
          <mxGeometry width="50" height="50" relative="1" as="geometry">
            <mxPoint x="640" y="620" as="sourcePoint" />
            <mxPoint x="430" y="620" as="targetPoint" />
            <Array as="points">
              <mxPoint x="550" y="620" />
            </Array>
          </mxGeometry>
        </mxCell>
        <mxCell id="DVDY-5uOP3O8Ss5EIEbu-74" value="true" style="text;html=1;align=center;verticalAlign=middle;resizable=0;points=[];autosize=1;strokeColor=none;fillColor=none;" parent="1" vertex="1">
          <mxGeometry x="520" y="588" width="40" height="30" as="geometry" />
        </mxCell>
        <mxCell id="DVDY-5uOP3O8Ss5EIEbu-75" value="" style="endArrow=classic;html=1;rounded=0;" parent="1" source="DVDY-5uOP3O8Ss5EIEbu-2" edge="1">
          <mxGeometry width="50" height="50" relative="1" as="geometry">
            <mxPoint x="440" y="690" as="sourcePoint" />
            <mxPoint x="1034.5" y="690" as="targetPoint" />
          </mxGeometry>
        </mxCell>
        <mxCell id="DVDY-5uOP3O8Ss5EIEbu-76" value="editar($dados)" style="text;html=1;align=center;verticalAlign=middle;resizable=0;points=[];autosize=1;strokeColor=none;fillColor=none;" parent="1" vertex="1">
          <mxGeometry x="670" y="660" width="100" height="30" as="geometry" />
        </mxCell>
        <mxCell id="DVDY-5uOP3O8Ss5EIEbu-78" value="" style="endArrow=classic;html=1;rounded=0;dashed=1;" parent="1" edge="1" source="DVDY-5uOP3O8Ss5EIEbu-2">
          <mxGeometry width="50" height="50" relative="1" as="geometry">
            <mxPoint x="265" y="780" as="sourcePoint" />
            <mxPoint x="169" y="780" as="targetPoint" />
          </mxGeometry>
        </mxCell>
        <mxCell id="DVDY-5uOP3O8Ss5EIEbu-79" value="true" style="edgeLabel;html=1;align=center;verticalAlign=middle;resizable=0;points=[];" parent="DVDY-5uOP3O8Ss5EIEbu-78" vertex="1" connectable="0">
          <mxGeometry x="-0.0618" y="2" relative="1" as="geometry">
            <mxPoint x="-1" y="-12" as="offset" />
          </mxGeometry>
        </mxCell>
        <mxCell id="DVDY-5uOP3O8Ss5EIEbu-80" value="else" style="text;html=1;align=center;verticalAlign=middle;resizable=0;points=[];autosize=1;strokeColor=none;fillColor=none;" parent="1" vertex="1">
          <mxGeometry x="-14" y="828" width="50" height="30" as="geometry" />
        </mxCell>
        <mxCell id="DVDY-5uOP3O8Ss5EIEbu-81" value="" style="endArrow=classic;html=1;rounded=0;exitX=1;exitY=0.742;exitDx=0;exitDy=0;exitPerimeter=0;" parent="1" edge="1">
          <mxGeometry width="50" height="50" relative="1" as="geometry">
            <mxPoint x="425" y="858.3800000000001" as="sourcePoint" />
            <mxPoint x="425" y="898" as="targetPoint" />
            <Array as="points">
              <mxPoint x="490" y="858" />
              <mxPoint x="600" y="858" />
              <mxPoint x="600" y="898" />
              <mxPoint x="490" y="898" />
              <mxPoint x="460" y="898" />
            </Array>
          </mxGeometry>
        </mxCell>
        <mxCell id="DVDY-5uOP3O8Ss5EIEbu-82" value="Logger::logError(&quot;Produto não encontrado&quot;);" style="edgeLabel;html=1;align=center;verticalAlign=middle;resizable=0;points=[];" parent="DVDY-5uOP3O8Ss5EIEbu-81" vertex="1" connectable="0">
          <mxGeometry x="0.0029" y="2" relative="1" as="geometry">
            <mxPoint y="-1" as="offset" />
          </mxGeometry>
        </mxCell>
        <mxCell id="DVDY-5uOP3O8Ss5EIEbu-85" value="" style="endArrow=classic;html=1;rounded=0;dashed=1;" parent="1" edge="1">
          <mxGeometry width="50" height="50" relative="1" as="geometry">
            <mxPoint x="415" y="949" as="sourcePoint" />
            <mxPoint x="171" y="949" as="targetPoint" />
          </mxGeometry>
        </mxCell>
        <mxCell id="DVDY-5uOP3O8Ss5EIEbu-86" value="false" style="text;html=1;align=center;verticalAlign=middle;resizable=0;points=[];autosize=1;strokeColor=none;fillColor=none;" parent="1" vertex="1">
          <mxGeometry x="275" y="918" width="43" height="26" as="geometry" />
        </mxCell>
        <mxCell id="CMd7mpboS4Zook93vOVp-1" value="" style="endArrow=classic;html=1;rounded=0;dashed=1;" edge="1" parent="1" source="DVDY-5uOP3O8Ss5EIEbu-6">
          <mxGeometry width="50" height="50" relative="1" as="geometry">
            <mxPoint x="655" y="746" as="sourcePoint" />
            <mxPoint x="425" y="746" as="targetPoint" />
            <Array as="points">
              <mxPoint x="550" y="746" />
            </Array>
          </mxGeometry>
        </mxCell>
        <mxCell id="CMd7mpboS4Zook93vOVp-2" value="true" style="text;html=1;align=center;verticalAlign=middle;resizable=0;points=[];autosize=1;strokeColor=none;fillColor=none;" vertex="1" parent="1">
          <mxGeometry x="710" y="717" width="40" height="30" as="geometry" />
        </mxCell>
        <mxCell id="aM9ryv3xv72pqoxQDRHE-3" value="preenche campos" style="html=1;verticalAlign=bottom;startArrow=oval;endArrow=block;startSize=8;edgeStyle=elbowEdgeStyle;elbow=vertical;curved=0;rounded=0;" parent="1" edge="1">
          <mxGeometry x="-0.0342" y="5" relative="1" as="geometry">
            <mxPoint x="57" y="119" as="sourcePoint" />
            <mxPoint as="offset" />
            <mxPoint x="152" y="119.34782608695662" as="targetPoint" />
          </mxGeometry>
        </mxCell>
        <mxCell id="CMd7mpboS4Zook93vOVp-4" value="" style="endArrow=classic;html=1;rounded=0;" edge="1" parent="1">
          <mxGeometry width="50" height="50" relative="1" as="geometry">
            <mxPoint x="173" y="801" as="sourcePoint" />
            <mxPoint x="173" y="832" as="targetPoint" />
            <Array as="points">
              <mxPoint x="235" y="801" />
              <mxPoint x="235" y="832" />
              <mxPoint x="225" y="832" />
              <mxPoint x="210" y="832" />
            </Array>
          </mxGeometry>
        </mxCell>
        <mxCell id="CMd7mpboS4Zook93vOVp-5" value="atualiza página" style="text;html=1;align=center;verticalAlign=middle;resizable=0;points=[];autosize=1;strokeColor=none;fillColor=none;shadow=0;labelBackgroundColor=default;" vertex="1" parent="1">
          <mxGeometry x="190" y="802" width="99" height="26" as="geometry" />
        </mxCell>
        <mxCell id="CMd7mpboS4Zook93vOVp-7" value="" style="endArrow=classic;html=1;rounded=0;" edge="1" parent="1">
          <mxGeometry width="50" height="50" relative="1" as="geometry">
            <mxPoint x="173" y="969" as="sourcePoint" />
            <mxPoint x="173" y="1000" as="targetPoint" />
            <Array as="points">
              <mxPoint x="235" y="969" />
              <mxPoint x="235" y="1000" />
              <mxPoint x="225" y="1000" />
              <mxPoint x="210" y="1000" />
            </Array>
          </mxGeometry>
        </mxCell>
        <mxCell id="CMd7mpboS4Zook93vOVp-8" value="alerta" style="edgeLabel;html=1;align=center;verticalAlign=middle;resizable=0;points=[];" vertex="1" connectable="0" parent="CMd7mpboS4Zook93vOVp-7">
          <mxGeometry x="-0.0474" y="2" relative="1" as="geometry">
            <mxPoint x="-4" y="5" as="offset" />
          </mxGeometry>
        </mxCell>
      </root>
    </mxGraphModel>
  </diagram>
</mxfile>
